<svg width="56" height="56" viewBox="0 0 56 56" fill="none" xmlns="http://www.w3.org/2000/svg">
<g clip-path="url(#clip0_34281_346865)">
<path d="M17.5 47.25H38.5V35V21V8.75H17.5V21V35V47.25ZM12.25 8.75H7C6.0375 8.75 5.25 9.5375 5.25 10.5V18.375H12.25V8.75ZM12.25 23.625H5.25V32.375H12.25V23.625ZM12.25 37.625H5.25V45.5C5.25 46.4625 6.0375 47.25 7 47.25H12.25V37.625ZM43.75 8.75V18.375H50.75V10.5C50.75 9.5375 49.9625 8.75 49 8.75H43.75ZM50.75 23.625H43.75V32.375H50.75V23.625ZM50.75 37.625H43.75V47.25H49C49.9625 47.25 50.75 46.4625 50.75 45.5V37.625ZM7 3.5H49C52.8609 3.5 56 6.63906 56 10.5V45.5C56 49.3609 52.8609 52.5 49 52.5H7C3.13906 52.5 0 49.3609 0 45.5V10.5C0 6.63906 3.13906 3.5 7 3.5Z" fill="#455875"/>
</g>
<defs>
<clipPath id="clip0_34281_346865">
<rect width="56" height="56" fill="white"/>
</clipPath>
</defs>
</svg>
