<svg width="24" height="24" viewBox="0 0 24 24" fill="none" xmlns="http://www.w3.org/2000/svg">
<g clip-path="url(#clip0_65338_66322)">
<path d="M3 8.80058C2.99989 8.16271 3.1326 7.53123 3.39039 6.94303C3.64818 6.35482 4.02586 5.8217 4.50138 5.37482C4.9769 4.92794 5.5407 4.57627 6.15984 4.34035C6.77898 4.10444 7.44104 3.98901 8.10733 4.00082C8.89568 3.99682 9.67591 4.15323 10.3963 4.45971C11.1167 4.76618 11.7609 5.21571 12.286 5.77851C12.8112 5.21571 13.4554 4.76618 14.1758 4.45971C14.8962 4.15323 15.6764 3.99682 16.4648 4.00082C17.131 3.98901 17.7931 4.10444 18.4122 4.34035C19.0314 4.57627 19.5952 4.92794 20.0707 5.37482C20.5462 5.8217 20.9239 6.35482 21.1817 6.94303C21.4395 7.53123 21.5722 8.16271 21.5721 8.80058C21.5721 13.5612 15.6485 17.1557 12.286 20C8.931 17.1317 3 13.5648 3 8.80058Z" fill="#F64E4E"/>
</g>
<defs>
<clipPath id="clip0_65338_66322">
<rect width="24" height="24" fill="white"/>
</clipPath>
</defs>
</svg>
