<svg width="25" height="24" viewBox="0 0 25 24" fill="none" xmlns="http://www.w3.org/2000/svg">
<path d="M7.8853 12.953H12.4912C12.8353 12.953 13.1088 12.6883 13.1088 12.3353V6.38824C13.1088 6.04412 12.8353 5.77942 12.4912 5.77942C12.1471 5.77942 11.8824 6.04412 11.8824 6.38824V11.7265H7.8853C7.53236 11.7265 7.26766 11.9912 7.26766 12.3353C7.26766 12.6883 7.53236 12.953 7.8853 12.953ZM12.5 21C17.4236 21 21.5 16.9148 21.5 12C21.5 7.07648 17.4148 3 12.4912 3C7.57648 3 3.5 7.07648 3.5 12C3.5 16.9148 7.5853 21 12.5 21ZM12.5 19.5001C8.33531 19.5001 5.00883 16.1648 5.00883 12C5.00883 7.83531 8.32648 4.50001 12.4912 4.50001C16.6559 4.50001 20.0001 7.83531 20.0001 12C20.0001 16.1648 16.6648 19.5001 12.5 19.5001Z" fill="#455875"/>
</svg>
