<svg width="312" height="168" viewBox="0 0 312 168" fill="none" xmlns="http://www.w3.org/2000/svg">
<g>
<path d="M0.000866804 97.7358C22.0297 96.4151 21.5801 71.5849 0.000912488 70.2642V3.69811C0.000912488 2.11321 1.79918 0.264151 6.29486 0H304.391C310.203 0 312.001 2.64151 312.001 4.14636V70.2642C293.569 70 287.275 95.8868 312.001 97.7358L312.001 163.774C312.001 166.919 307.346 167.998 305.257 168H7.64356C3.14789 168 -0.448655 166.415 0.000912488 163.245L0.000866804 97.7358Z" fill="#13213F"/>
<path d="M1.9811 163.526L2.00091 163.386L2.00091 163.245L2.00087 99.5601C12.6206 98.2395 18.4176 91.4038 18.3538 83.9828C18.2904 76.6018 12.4272 69.7751 2.00091 68.4442V3.69811C2.00091 3.68836 2.00209 3.62682 2.06973 3.51343C2.13945 3.39656 2.28924 3.2115 2.59282 3.0034C3.20592 2.58312 4.37378 2.12377 6.35535 2H304.391C309.268 2 309.914 3.90537 309.991 4.13176C309.999 4.1541 310.001 4.16009 310.001 4.14628V68.3326C300.883 69.0868 294.678 75.7845 293.83 82.9733C293.372 86.8594 294.493 90.8712 297.541 94.0178C300.278 96.8425 304.422 98.8255 310.001 99.5431L310.001 163.774C310.001 164.165 309.747 164.704 308.568 165.252C307.443 165.776 306.051 165.999 305.256 166H7.64356C5.57668 166 3.93957 165.627 2.95036 165.069C2.47344 164.8 2.22577 164.534 2.10393 164.323C1.9971 164.139 1.92792 163.901 1.9811 163.526Z" stroke="url(#paint0_linear_33077_2293)" stroke-width="4"/>
</g>
<defs>
<linearGradient id="paint0_linear_33077_2293" x1="155.982" y1="0" x2="155.982" y2="168" gradientUnits="userSpaceOnUse">
<stop stop-color="#35CBCC"/>
<stop offset="1" stop-color="#4781FF" stop-opacity="0.5"/>
</linearGradient>
</defs>
</svg>
