<svg width="25" height="24" viewBox="0 0 25 24" fill="none" xmlns="http://www.w3.org/2000/svg">
<path d="M3.5 15.6587C3.5 15.9935 3.63102 16.2046 3.92216 16.3429C4.73008 16.7432 5.18136 17.2018 5.68358 18.1917C5.83643 18.461 6.06207 18.5993 6.36049 18.5993H18.6395C18.9307 18.5993 19.1563 18.461 19.3091 18.1917C19.8113 17.2018 20.2626 16.7432 21.0778 16.3429C21.3689 16.2046 21.5 15.9935 21.5 15.6587V8.94783C21.5 8.60574 21.3689 8.39466 21.0778 8.26364C20.2626 7.86332 19.8113 7.39749 19.3091 6.41488C19.1563 6.13829 18.9307 6 18.6395 6H6.36049C6.06207 6 5.83643 6.13829 5.68358 6.41488C5.18136 7.39749 4.73008 7.86332 3.92216 8.26364C3.63102 8.39466 3.5 8.60574 3.5 8.94783V15.6587ZM6.49151 15.6223V8.98423C6.49151 8.59118 6.76081 8.32187 7.15386 8.32187H17.8388C18.2392 8.32187 18.5012 8.59118 18.5012 8.98423V15.6223C18.5012 16.0226 18.2392 16.2847 17.8388 16.2847H7.15386C6.76081 16.2847 6.49151 16.0226 6.49151 15.6223ZM7.41589 10.6801H8.39122V9.2317H7.57602C7.46684 9.2317 7.41589 9.2972 7.41589 9.39911V10.6801ZM7.41589 13.0239H8.39122V11.59H7.41589V13.0239ZM7.41589 15.2074C7.41589 15.3166 7.46684 15.3749 7.57602 15.3749H8.39122V13.9337H7.41589V15.2074ZM16.6088 10.6801H17.5841V9.39911C17.5841 9.2972 17.5332 9.2317 17.424 9.2317H16.6088V10.6801ZM16.6088 13.0239H17.5841V11.59H16.6088V13.0239ZM16.6088 15.3749H17.424C17.5332 15.3749 17.5841 15.3166 17.5841 15.2074V13.9337H16.6088V15.3749ZM9.30832 15.3749H15.6917V9.2317H9.30832V15.3749Z" fill="#455875"/>
</svg>
