<svg width="25" height="24" viewBox="0 0 25 24" fill="none" xmlns="http://www.w3.org/2000/svg">
<path d="M6.22895 20H18.1007C19.9171 20 20.821 19.0961 20.821 17.3058V6.69418C20.821 4.90386 19.9171 4 18.1007 4H6.22895C4.41255 4 3.5 4.89516 3.5 6.69418V17.3058C3.5 19.1048 4.41255 20 6.22895 20ZM6.09859 18.6007C5.32509 18.6007 4.89924 18.1923 4.89924 17.384V9.18847C4.89924 8.38891 5.32509 7.97175 6.09859 7.97175H18.2137C18.9872 7.97175 19.4218 8.38891 19.4218 9.18847V17.384C19.4218 18.1923 18.9872 18.6007 18.2137 18.6007H6.09859ZM10.4701 11.0918H10.9828C11.2871 11.0918 11.3827 11.0049 11.3827 10.7007V10.1879C11.3827 9.88375 11.2871 9.78814 10.9828 9.78814H10.4701C10.1659 9.78814 10.0616 9.88375 10.0616 10.1879V10.7007C10.0616 11.0049 10.1659 11.0918 10.4701 11.0918ZM13.3555 11.0918H13.8683C14.1724 11.0918 14.2767 11.0049 14.2767 10.7007V10.1879C14.2767 9.88375 14.1724 9.78814 13.8683 9.78814H13.3555C13.0513 9.78814 12.947 9.88375 12.947 10.1879V10.7007C12.947 11.0049 13.0513 11.0918 13.3555 11.0918ZM16.2409 11.0918H16.7536C17.0578 11.0918 17.1621 11.0049 17.1621 10.7007V10.1879C17.1621 9.88375 17.0578 9.78814 16.7536 9.78814H16.2409C15.9367 9.78814 15.8411 9.88375 15.8411 10.1879V10.7007C15.8411 11.0049 15.9367 11.0918 16.2409 11.0918ZM7.58473 13.9337H8.0888C8.40168 13.9337 8.49727 13.8468 8.49727 13.5426V13.0298C8.49727 12.7257 8.40168 12.6388 8.0888 12.6388H7.58473C7.27186 12.6388 7.17625 12.7257 7.17625 13.0298V13.5426C7.17625 13.8468 7.27186 13.9337 7.58473 13.9337ZM10.4701 13.9337H10.9828C11.2871 13.9337 11.3827 13.8468 11.3827 13.5426V13.0298C11.3827 12.7257 11.2871 12.6388 10.9828 12.6388H10.4701C10.1659 12.6388 10.0616 12.7257 10.0616 13.0298V13.5426C10.0616 13.8468 10.1659 13.9337 10.4701 13.9337ZM13.3555 13.9337H13.8683C14.1724 13.9337 14.2767 13.8468 14.2767 13.5426V13.0298C14.2767 12.7257 14.1724 12.6388 13.8683 12.6388H13.3555C13.0513 12.6388 12.947 12.7257 12.947 13.0298V13.5426C12.947 13.8468 13.0513 13.9337 13.3555 13.9337ZM16.2409 13.9337H16.7536C17.0578 13.9337 17.1621 13.8468 17.1621 13.5426V13.0298C17.1621 12.7257 17.0578 12.6388 16.7536 12.6388H16.2409C15.9367 12.6388 15.8411 12.7257 15.8411 13.0298V13.5426C15.8411 13.8468 15.9367 13.9337 16.2409 13.9337ZM7.58473 16.7843H8.0888C8.40168 16.7843 8.49727 16.6887 8.49727 16.3846V15.8717C8.49727 15.5676 8.40168 15.4807 8.0888 15.4807H7.58473C7.27186 15.4807 7.17625 15.5676 7.17625 15.8717V16.3846C7.17625 16.6887 7.27186 16.7843 7.58473 16.7843ZM10.4701 16.7843H10.9828C11.2871 16.7843 11.3827 16.6887 11.3827 16.3846V15.8717C11.3827 15.5676 11.2871 15.4807 10.9828 15.4807H10.4701C10.1659 15.4807 10.0616 15.5676 10.0616 15.8717V16.3846C10.0616 16.6887 10.1659 16.7843 10.4701 16.7843ZM13.3555 16.7843H13.8683C14.1724 16.7843 14.2767 16.6887 14.2767 16.3846V15.8717C14.2767 15.5676 14.1724 15.4807 13.8683 15.4807H13.3555C13.0513 15.4807 12.947 15.5676 12.947 15.8717V16.3846C12.947 16.6887 13.0513 16.7843 13.3555 16.7843Z" fill="#455875"/>
</svg>
