<svg width="24" height="24" viewBox="0 0 24 24" fill="none" xmlns="http://www.w3.org/2000/svg">
<g clip-path="url(#clip0_65338_66192)">
<path d="M3.5 8.80058V8.80049C3.4999 8.23223 3.6181 7.66907 3.84834 7.14373C4.0786 6.61832 4.41662 6.14062 4.84379 5.73918C5.27101 5.33769 5.77876 5.02063 6.33788 4.80758C6.89702 4.59453 7.49562 4.49006 8.09846 4.50074L8.09846 4.50087L8.10987 4.50082C8.83059 4.49715 9.54331 4.64019 10.2006 4.9198C10.8578 5.1994 11.4438 5.60881 11.9205 6.11963L12.286 6.51139L12.6516 6.11963C13.1283 5.60881 13.7143 5.1994 14.3715 4.9198C15.0288 4.64019 15.7415 4.49715 16.4622 4.50082L16.4622 4.50095L16.4736 4.50074C17.0765 4.49006 17.6751 4.59453 18.2342 4.80758C18.7933 5.02063 19.3011 5.33769 19.7283 5.73918C20.1555 6.14062 20.4935 6.61832 20.7238 7.14373C20.954 7.66907 21.0722 8.23223 21.0721 8.80049V8.80058C21.0721 10.9691 19.7199 12.9333 17.8414 14.7605C16.9099 15.6665 15.8707 16.5183 14.8458 17.3271C14.5527 17.5584 14.2597 17.787 13.9706 18.0125C13.3816 18.4719 12.8093 18.9184 12.2876 19.3477C11.7425 18.895 11.142 18.425 10.5247 17.9419C10.2618 17.7361 9.99577 17.5279 9.72969 17.3177C8.70465 16.5077 7.66516 15.6569 6.73308 14.7524C4.85343 12.9284 3.5 10.9704 3.5 8.80058Z" stroke="#F64E4E"/>
</g>
<defs>
<clipPath id="clip0_65338_66192">
<rect width="24" height="24" fill="white"/>
</clipPath>
</defs>
</svg>
